<svg xmlns="http://www.w3.org/2000/svg" width="1200" height="630" fill="none" viewBox="0 0 1200 630"><rect width="1200" height="630" fill="#f8fafc" rx="32"/><rect width="1128" height="558" x="36" y="36" fill="url(#a)" rx="28"/><g filter="url(#b)"><rect width="160" height="160" x="96" y="96" fill="url(#c)" rx="36"/><path fill="#fff" d="M176 131c-24.853 0-45 20.147-45 45 0 33.75 45 83.571 45 83.571S221 209.75 221 176c0-24.853-20.147-45-45-45m0 61.071a16.071 16.071 0 1 1 0-32.142 16.071 16.071 0 0 1 0 32.142"/></g><text x="310" y="188" fill="#fff" font-family="Segoe UI, Arial, sans-serif" font-size="64" font-weight="700">Geo Tags Editor</text><text x="310" y="264" fill="#dbeafe" font-family="Segoe UI, Arial, sans-serif" font-size="34" font-weight="500">Free Online Geo Tag Editor</text><text x="96" y="378" fill="#eff6ff" font-family="Segoe UI, Arial, sans-serif" font-size="44" font-weight="700">Add, edit, or remove GPS EXIF location data</text><text x="96" y="438" fill="#dbeafe" font-family="Segoe UI, Arial, sans-serif" font-size="30" font-weight="400">Fast. Private. Browser-based. No uploads required.</text><rect width="350" height="68" x="96" y="492" fill="#fff" rx="18"/><text x="126" y="536" fill="#0369a1" font-family="Segoe UI, Arial, sans-serif" font-size="28" font-weight="700">geotagseditor.online</text><defs><linearGradient id="a" x1="0" x2="1200" y1="0" y2="630" gradientUnits="userSpaceOnUse"><stop stop-color="#0369a1"/><stop offset="1" stop-color="#4f46e5"/></linearGradient><linearGradient id="c" x1="96" x2="256" y1="96" y2="256" gradientUnits="userSpaceOnUse"><stop stop-color="#0284c7"/><stop offset="1" stop-color="#4f46e5"/></linearGradient><filter id="b" width="200" height="200" x="76" y="84" color-interpolation-filters="sRGB" filterUnits="userSpaceOnUse"><feFlood flood-opacity="0" result="BackgroundImageFix"/><feColorMatrix in="SourceAlpha" result="hardAlpha" values="0 0 0 0 0 0 0 0 0 0 0 0 0 0 0 0 0 0 127 0"/><feOffset dy="8"/><feGaussianBlur stdDeviation="10"/><feComposite in2="hardAlpha" operator="out"/><feColorMatrix values="0 0 0 0 0.0588235 0 0 0 0 0.113725 0 0 0 0 0.25098 0 0 0 0.18 0"/><feBlend in2="BackgroundImageFix" result="effect1_dropShadow_0_1"/><feBlend in="SourceGraphic" in2="effect1_dropShadow_0_1" result="shape"/></filter></defs></svg>