<svg xmlns="http://www.w3.org/2000/svg" width="640" height="360" viewBox="0 0 640 360"><defs><linearGradient id="a" x1="0%" x2="100%" y1="0%" y2="100%"><stop offset="0%" style="stop-color:#f0f9ff"/><stop offset="100%" style="stop-color:#e0f2fe"/></linearGradient></defs><rect width="640" height="360" fill="url(#a)" rx="8"/><rect width="600" height="320" x="20" y="20" fill="#fff" stroke="#e2e8f0" stroke-width="1.5" rx="8"/><rect width="600" height="40" x="20" y="20" fill="#f8fafc" rx="8"/><path fill="#f8fafc" d="M20 48h600v12H20z"/><circle cx="44" cy="40" r="6" fill="#ef4444" opacity=".7"/><circle cx="62" cy="40" r="6" fill="#f59e0b" opacity=".7"/><circle cx="80" cy="40" r="6" fill="#10b981" opacity=".7"/><rect width="520" height="220" x="60" y="80" fill="#f0f9ff" stroke="#0284c7" stroke-dasharray="8,4" stroke-width="2" rx="12"/><g transform="translate(285 130)"><ellipse cx="35" cy="28" fill="#bae6fd" rx="30" ry="20"/><ellipse cx="20" cy="35" fill="#bae6fd" rx="18" ry="14"/><ellipse cx="55" cy="36" fill="#bae6fd" rx="14" ry="11"/><path fill="#0284c7" d="m35 10 10 18h-5v22H30V28h-5z"/></g><text x="320" y="210" fill="#0f172a" font-family="system-ui,sans-serif" font-size="16" font-weight="600" text-anchor="middle">Drag &amp; Drop Your Photos Here</text><text x="320" y="232" fill="#64748b" font-family="system-ui,sans-serif" font-size="13" text-anchor="middle">or click to browse — supports JPEG/JPG</text><rect width="160" height="36" x="240" y="260" fill="#0284c7" rx="8"/><text x="320" y="282" fill="#fff" font-family="system-ui,sans-serif" font-size="13" font-weight="600" text-anchor="middle">Choose Files</text></svg>