<svg xmlns="http://www.w3.org/2000/svg" width="640" height="360" viewBox="0 0 640 360"><defs><linearGradient id="a" x1="0%" x2="100%" y1="0%" y2="100%"><stop offset="0%" style="stop-color:#f0f9ff"/><stop offset="100%" style="stop-color:#e0f2fe"/></linearGradient></defs><rect width="640" height="360" fill="url(#a)" rx="8"/><rect width="600" height="320" x="20" y="20" fill="#fff" stroke="#e2e8f0" stroke-width="1.5" rx="8"/><rect width="600" height="40" x="20" y="20" fill="#f8fafc" rx="8"/><path fill="#f8fafc" d="M20 48h600v12H20z"/><circle cx="44" cy="40" r="6" fill="#ef4444" opacity=".7"/><circle cx="62" cy="40" r="6" fill="#f59e0b" opacity=".7"/><circle cx="80" cy="40" r="6" fill="#10b981" opacity=".7"/><text x="60" y="90" fill="#0f172a" font-family="system-ui,sans-serif" font-size="15" font-weight="700">Set GPS Coordinates</text><text x="60" y="118" fill="#64748b" font-family="system-ui,sans-serif" font-size="12">Latitude</text><rect width="230" height="36" x="60" y="124" fill="#f8fafc" stroke="#0284c7" stroke-width="2" rx="6"/><text x="76" y="147" fill="#0f172a" font-family="system-ui,sans-serif" font-size="13">48.8566</text><text x="320" y="118" fill="#64748b" font-family="system-ui,sans-serif" font-size="12">Longitude</text><rect width="240" height="36" x="320" y="124" fill="#f8fafc" stroke="#e2e8f0" stroke-width="1.5" rx="6"/><text x="336" y="147" fill="#0f172a" font-family="system-ui,sans-serif" font-size="13">2.3522</text><rect width="500" height="28" x="60" y="178" fill="#f1f5f9" rx="4"/><text x="76" y="197" fill="#475569" font-family="system-ui,sans-serif" font-size="12">GPS Latitude</text><text x="300" y="197" fill="#0284c7" font-family="system-ui,sans-serif" font-size="12">48°51&apos;23.76&quot; N</text><rect width="500" height="28" x="60" y="208" fill="#fff" rx="4"/><text x="76" y="227" fill="#475569" font-family="system-ui,sans-serif" font-size="12">GPS Longitude</text><text x="300" y="227" fill="#0284c7" font-family="system-ui,sans-serif" font-size="12">2°21&apos;7.92&quot; E</text><rect width="500" height="28" x="60" y="238" fill="#f1f5f9" rx="4"/><text x="76" y="257" fill="#475569" font-family="system-ui,sans-serif" font-size="12">Camera</text><text x="300" y="257" fill="#94a3b8" font-family="system-ui,sans-serif" font-size="12">Apple iPhone 15 Pro</text><rect width="200" height="36" x="60" y="290" fill="#0284c7" rx="8"/><text x="160" y="312" fill="#fff" font-family="system-ui,sans-serif" font-size="13" font-weight="600" text-anchor="middle">Apply Coordinates</text><rect width="160" height="36" x="278" y="290" fill="#ef4444" rx="8"/><text x="358" y="312" fill="#fff" font-family="system-ui,sans-serif" font-size="13" font-weight="600" text-anchor="middle">Remove Geotag</text></svg>