<svg xmlns="http://www.w3.org/2000/svg" width="640" height="360" viewBox="0 0 640 360"><defs><linearGradient id="a" x1="0%" x2="100%" y1="0%" y2="100%"><stop offset="0%" style="stop-color:#f0f9ff"/><stop offset="100%" style="stop-color:#e0f2fe"/></linearGradient></defs><rect width="640" height="360" fill="url(#a)" rx="8"/><rect width="600" height="320" x="20" y="20" fill="#fff" stroke="#e2e8f0" stroke-width="1.5" rx="8"/><rect width="600" height="40" x="20" y="20" fill="#f8fafc" rx="8"/><path fill="#f8fafc" d="M20 48h600v12H20z"/><circle cx="44" cy="40" r="6" fill="#ef4444" opacity=".7"/><circle cx="62" cy="40" r="6" fill="#f59e0b" opacity=".7"/><circle cx="80" cy="40" r="6" fill="#10b981" opacity=".7"/><rect width="560" height="250" x="40" y="70" fill="#e8f4e8" rx="6"/><path stroke="#c8e6c8" d="M40 120h560M40 170h560M40 220h560M40 270h560M160 70v250M280 70v250M400 70v250M520 70v250"/><path fill="none" stroke="#b0c4b0" stroke-linecap="round" stroke-width="6" d="M40 195q110-10 240 0 120 10 320 0"/><path fill="none" stroke="#b0c4b0" stroke-linecap="round" stroke-width="5" d="M280 70q-5 80 0 125t0 125"/><g transform="translate(310 165)"><path fill="#ef4444" stroke="#fff" stroke-width="2" d="M0-28c-14 0-24 10-24 22C-24 8 0 28 0 28S24 8 24-6c0-12-10-22-24-22Z"/><circle cy="-8" r="8" fill="#fff"/></g><rect width="180" height="50" x="330" y="130" fill="#fff" stroke="#e2e8f0" stroke-width="1.5" filter="drop-shadow(0 2px 4px rgba(0,0,0,0.1))" rx="6"/><text x="420" y="152" fill="#64748b" font-family="system-ui,sans-serif" font-size="11" text-anchor="middle">Selected Location</text><text x="420" y="170" fill="#0284c7" font-family="system-ui,sans-serif" font-size="12" font-weight="600" text-anchor="middle">48.8566, 2.3522</text><rect width="30" height="30" x="555" y="90" fill="#fff" stroke="#e2e8f0" rx="4"/><text x="570" y="109" fill="#475569" font-family="system-ui,sans-serif" font-size="18" font-weight="600" text-anchor="middle">+</text><rect width="30" height="30" x="555" y="122" fill="#fff" stroke="#e2e8f0" rx="4"/><text x="570" y="141" fill="#475569" font-family="system-ui,sans-serif" font-size="18" font-weight="600" text-anchor="middle">−</text></svg>